<?xml version="1.0" standalone="no"?>
<!DOCTYPE svg PUBLIC "-//W3C//DTD SVG 20010904//EN"
 "http://www.w3.org/TR/2001/REC-SVG-20010904/DTD/svg10.dtd">
<svg version="1.0" xmlns="http://www.w3.org/2000/svg"
 width="352.000000pt" height="103.000000pt" viewBox="0 0 352.000000 103.000000"
 preserveAspectRatio="xMidYMid meet">
<metadata>
Created by potrace 1.14, written by Peter Selinger 2001-2017
</metadata>
<g transform="translate(0.000000,103.000000) scale(0.100000,-0.100000)"
fill="#000000" stroke="none">
<path d="M200 1013 c0 -5 154 -60 343 -123 l342 -115 -72 -3 -73 -3 0 -164 0
-165 -35 0 -35 0 0 165 0 165 -65 0 -64 0 -3 -142 -3 -143 -38 115 c-61 186
-49 170 -123 170 l-64 0 0 -150 c0 -136 -2 -150 -17 -150 -22 0 -206 27 -250
36 -19 4 -33 2 -33 -3 0 -5 53 -17 117 -27 65 -9 133 -19 151 -22 l32 -5 0
-154 0 -155 65 0 65 0 0 142 c0 78 4 138 8 132 5 -5 26 -69 47 -141 l39 -133
68 0 68 0 0 140 0 140 35 0 35 0 0 -140 0 -140 140 0 140 0 0 60 0 60 -60 0
-60 0 0 70 0 70 51 0 c44 0 56 -5 103 -42 28 -24 63 -50 76 -60 l25 -16 -32
-34 c-29 -30 -53 -75 -53 -99 0 -5 12 -9 26 -9 21 0 25 -4 19 -18 -14 -37 -17
-72 -6 -72 6 0 11 10 11 23 0 23 25 67 39 67 4 0 29 21 55 46 40 38 53 45 75
40 14 -4 55 -12 91 -18 36 -7 67 -13 69 -15 3 -2 -6 -14 -19 -28 l-23 -25 82
0 c73 0 86 3 116 26 19 14 51 28 72 31 35 4 39 2 51 -26 13 -30 15 -31 84 -31
l70 0 -27 36 c-15 19 -25 36 -24 38 10 7 155 33 164 29 13 -5 65 -80 65 -93 0
-6 25 -10 55 -10 51 0 55 2 55 24 0 13 -11 40 -25 61 -15 20 -24 39 -21 42 9
9 83 -37 100 -61 27 -43 65 -60 141 -67 60 -5 93 -16 214 -73 79 -37 149 -65
155 -63 6 2 -47 32 -118 66 -71 34 -132 63 -134 66 -3 2 10 16 27 31 45 38 54
59 60 154 l6 85 94 3 c84 2 97 0 127 -20 61 -41 71 -153 14 -153 -24 0 -25 3
-28 63 l-3 62 -74 0 -75 0 0 -42 c0 -65 16 -111 51 -144 30 -28 33 -29 135
-29 l106 0 35 39 36 38 -5 104 -5 104 38 0 c110 0 474 62 496 84 14 14 -6 14
-52 0 -70 -21 -197 -42 -360 -59 -133 -14 -140 -14 -160 4 -11 10 -53 40 -92
65 -78 50 -90 73 -51 100 31 22 37 20 35 -11 -2 -26 -2 -26 70 -27 l73 -1 0
41 c0 23 -5 55 -11 73 -11 31 -10 33 32 68 24 20 72 66 106 102 59 61 63 64
63 38 0 -15 5 -27 10 -27 6 0 10 20 10 45 0 25 -2 45 -5 45 -3 0 -34 -30 -68
-67 -34 -36 -88 -88 -119 -114 l-57 -47 -38 19 c-49 25 -144 25 -200 0 -55
-26 -73 -62 -73 -150 0 -68 -1 -71 -30 -86 l-30 -16 0 131 0 130 -80 0 -80 0
0 -175 0 -175 -25 0 -25 0 0 175 0 175 -80 0 -80 0 -2 -177 -3 -178 -99 0 -99
0 -111 139 -110 139 35 29 c33 28 169 99 218 113 39 12 21 -10 -69 -82 -66
-52 -86 -75 -88 -96 -4 -30 19 -56 49 -57 22 0 191 131 214 166 9 14 20 47 23
72 l7 45 64 13 c35 7 66 16 69 19 14 14 -11 14 -72 -2 -66 -16 -67 -16 -82 5
-13 19 -25 22 -85 22 l-70 0 21 -22 c46 -49 45 -52 -42 -87 -44 -19 -108 -53
-143 -76 -43 -30 -69 -41 -86 -38 -33 6 -61 -18 -61 -50 0 -22 -13 -36 -70
-77 -62 -43 -73 -47 -94 -38 -13 6 -24 14 -24 18 0 4 37 36 82 71 44 35 118
93 162 127 45 35 80 69 78 75 -2 7 0 9 3 5 4 -4 35 14 69 40 l61 47 -83 3 -82
3 -153 -120 c-83 -65 -174 -139 -201 -164 -48 -45 -48 -45 -80 -30 -36 18
-170 184 -174 217 -4 27 57 86 88 86 11 0 49 -35 95 -91 70 -82 80 -90 108
-87 24 2 34 10 41 29 8 23 2 35 -40 92 l-49 67 -161 0 c-184 0 -184 0 -191
-78 -4 -37 1 -57 21 -94 14 -27 24 -48 23 -48 -17 0 -97 34 -97 41 0 5 -12 9
-27 9 -16 0 -194 56 -396 125 -203 69 -373 125 -378 125 -5 0 -9 -3 -9 -7z
m900 -313 c38 -14 61 -37 152 -151 60 -74 108 -136 108 -139 0 -9 -312 2 -337
11 -19 7 -23 16 -23 54 l0 45 -50 0 -50 0 0 65 0 65 55 0 55 0 0 41 c0 45 -3
45 90 9z m676 -180 c87 -110 100 -133 63 -109 -13 9 -37 19 -52 23 -16 4 -73
27 -128 53 l-99 46 57 43 c32 23 63 43 69 43 5 1 46 -44 90 -99z m-132 -46
c56 -26 103 -48 106 -51 14 -13 -38 -23 -129 -23 -94 0 -107 2 -128 22 -13 12
-23 25 -23 30 0 8 60 67 69 68 2 0 49 -21 105 -46z m35 -115 c-8 -4 -54 -40
-104 -79 l-90 -71 -50 6 c-70 9 -135 26 -135 36 0 4 14 17 30 29 23 17 30 29
30 55 0 55 19 52 72 -9 56 -64 87 -72 114 -31 15 23 15 27 0 50 -9 13 -16 27
-16 29 0 3 35 6 78 8 74 3 100 -6 71 -23z m204 5 c31 -15 71 -57 83 -87 7 -18
-74 -40 -156 -42 -30 0 -62 -4 -70 -7 -29 -12 -60 -16 -60 -8 0 4 34 34 75 66
41 32 78 67 81 76 7 22 8 22 47 2z"/>
</g>
</svg>
